<svg xmlns="http://www.w3.org/2000/svg" viewBox="0 0 277 150" width="277" height="150"><rect width="277" height="150" fill="#ffffff"/><rect x="10.0" y="10.0" width="12.0" height="12.0" fill="#b5543b" stroke="none"/><text x="28.0" y="20.0" font-family="ui-monospace,'SFMono-Regular',Menlo,Consolas,monospace" font-size="12" fill="#2b2e33" text-anchor="start" font-weight="600">B19</text><text x="265.2" y="20.0" font-family="ui-monospace,'SFMono-Regular',Menlo,Consolas,monospace" font-size="9.5" fill="#6b7280" text-anchor="end">数量 Qty 2</text><text x="10.0" y="36.0" font-family="ui-monospace,'SFMono-Regular',Menlo,Consolas,monospace" font-size="8.5" fill="#6b7280" text-anchor="start">Red · cut · cut flat</text><polygon points="34.0,64.0 201.2,64.0 201.2,96.0 34.0,96.0" fill="#f3ded7" stroke="#b5543b" stroke-width="1.2" stroke-linejoin="round"/><line x1="34.0" y1="98.0" x2="34.0" y2="113.0" stroke="#6b7280" stroke-width="0.5"/><line x1="201.2" y1="98.0" x2="201.2" y2="113.0" stroke="#6b7280" stroke-width="0.5"/><line x1="34.0" y1="110.0" x2="201.2" y2="110.0" stroke="#3a3f45" stroke-width="0.7"/><line x1="31.9" y1="112.1" x2="36.1" y2="107.9" stroke="#3a3f45" stroke-width="1"/><line x1="199.1" y1="112.1" x2="203.3" y2="107.9" stroke="#3a3f45" stroke-width="1"/><text x="117.6" y="107.0" font-family="ui-monospace,'SFMono-Regular',Menlo,Consolas,monospace" font-size="9" fill="#3a3f45" text-anchor="middle">104.5</text><line x1="203.2" y1="64.0" x2="216.2" y2="64.0" stroke="#6b7280" stroke-width="0.5"/><line x1="203.2" y1="96.0" x2="216.2" y2="96.0" stroke="#6b7280" stroke-width="0.5"/><line x1="213.2" y1="64.0" x2="213.2" y2="96.0" stroke="#3a3f45" stroke-width="0.7"/><line x1="211.1" y1="61.9" x2="215.3" y2="66.1" stroke="#3a3f45" stroke-width="1"/><line x1="211.1" y1="93.9" x2="215.3" y2="98.1" stroke="#3a3f45" stroke-width="1"/><text x="217.2" y="80.0" font-family="ui-monospace,'SFMono-Regular',Menlo,Consolas,monospace" font-size="9" fill="#3a3f45" text-anchor="start" dominant-baseline="middle">20</text></svg>